<svg width="30" height="27" viewBox="0 0 30 27" fill="none" xmlns="http://www.w3.org/2000/svg">
<g id="&#240;&#159;&#166;&#134; emoji &#34;fork and knife with plate&#34;">
<g id="Group">
<path id="Vector" d="M5.16626 17.7652V21.8749C7.62318 24.8783 11.3584 26.7953 15.5414 26.7953C20.1761 26.7953 24.2611 24.4419 26.6667 20.8651V15.1055C25.8439 20.5104 21.1762 24.6517 15.5414 24.6517C10.8748 24.6517 6.87161 21.8114 5.16626 17.7652Z" fill="white"/>
<path id="Vector_2" d="M24.6839 6.83366V4.98779C24.6811 4.56859 24.7508 4.1661 24.881 3.79205C22.4678 1.44526 19.1734 0 15.5413 0C12.2918 0 9.31237 1.1569 6.99268 3.0813C6.99465 3.10309 6.99623 3.12497 6.99742 3.14692L6.99898 3.17582V6.07059C9.06296 3.66651 12.1243 2.14363 15.5413 2.14363C19.3071 2.14363 22.641 3.99327 24.6839 6.83366Z" fill="white"/>
<path id="Vector_3" d="M24.1158 13.3976C24.1158 18.1332 20.2769 21.9721 15.5413 21.9721C10.8057 21.9721 6.9668 18.1332 6.9668 13.3976C6.9668 8.66203 10.8057 4.82312 15.5413 4.82312C20.2769 4.82312 24.1158 8.66203 24.1158 13.3976ZM15.5413 20.9003C19.6849 20.9003 23.044 17.5412 23.044 13.3976C23.044 9.25399 19.6849 5.89493 15.5413 5.89493C11.3976 5.89493 8.03861 9.25399 8.03861 13.3976C8.03861 17.5412 11.3976 20.9003 15.5413 20.9003Z" fill="white"/>
<path id="Vector_4" d="M30.0001 4.22297C30.0001 3.25834 29.2176 2.47595 28.253 2.47595C26.8597 2.47595 25.745 3.60134 25.7557 4.98398V10.9325C25.7557 12.2755 26.5334 13.4778 27.7384 14.0226V23.2584C27.7384 23.8158 28.1886 24.2659 28.7459 24.2659H28.9925C29.5498 24.2659 30 23.8158 30 23.2584L30.0001 4.22297Z" fill="white"/>
<path id="Vector_5" d="M5.16613 2.47596C4.75884 2.47596 4.4373 2.80821 4.4373 3.20478V6.08797C4.4373 6.30232 4.2658 6.46305 4.06216 6.46305C3.8478 6.46305 3.68703 6.2916 3.68703 6.08797V3.23694C3.68703 2.84037 3.37621 2.48668 2.97964 2.47596C2.56163 2.46524 2.21864 2.79749 2.21864 3.20478V6.08797C2.21864 6.30232 2.04716 6.46305 1.84352 6.46305C1.62915 6.46305 1.46838 6.2916 1.46838 6.08797V3.23694C1.46838 2.84037 1.15755 2.48668 0.760976 2.47596C0.342969 2.46524 0 2.79749 0 3.20478V8.11364C0 9.08095 0.468661 9.94269 1.18843 10.4812C1.83279 10.8446 1.83279 12.5081 1.83279 12.5081V23.2476C1.83279 23.805 2.28295 24.2551 2.84029 24.2551H3.08681C3.64415 24.2551 4.09431 23.805 4.09431 23.2476V12.5081C4.09431 12.5081 4.09431 10.9096 4.73869 10.4812C5.45845 9.94269 5.92712 9.08095 5.92712 8.11364V3.20478C5.90569 2.80821 5.57341 2.47596 5.16613 2.47596Z" fill="white"/>
</g>
</g>
</svg>
