<svg width="40" height="35" viewBox="0 0 40 35" fill="none" xmlns="http://www.w3.org/2000/svg">
<g id="&#240;&#159;&#166;&#134; icon &#34;alarm&#34;">
<path id="Vector" d="M15.2294 11.0271H13.0419V19.7771L19.969 23.9333L21.0627 22.1396L15.2294 18.6833V11.0271ZM22.2833 2L29.0019 7.60729L27.1352 9.84583L20.4123 4.24146L22.2833 2ZM6.71708 2L8.58667 4.24L1.86667 9.84583L0 7.60583L6.71708 2ZM14.5002 5.19375C7.25229 5.19375 1.37521 11.0708 1.37521 18.3188C1.37521 25.5667 7.25229 31.4438 14.5002 31.4438C21.7481 31.4438 27.6252 25.5667 27.6252 18.3188C27.6252 11.0708 21.7481 5.19375 14.5002 5.19375ZM14.5002 28.5271C8.87104 28.5271 4.29187 23.9479 4.29187 18.3188C4.29187 12.6896 8.87104 8.11042 14.5002 8.11042C20.1294 8.11042 24.7085 12.6896 24.7085 18.3188C24.7085 23.9479 20.1294 28.5271 14.5002 28.5271Z" fill="#4CAF50"/>
</g>
</svg>
