<svg width="292" height="247" viewBox="0 0 292 247" fill="none" xmlns="http://www.w3.org/2000/svg">
<g clip-path="url(#clip0_78_553)">
<path d="M288.069 84.5122C288.412 85.8532 288.733 87.2009 289.032 88.5555H187.087V84.5122H288.069Z" fill="#E6E6E6"/>
<path d="M284.819 73.8545C283.178 69.2128 281.264 64.6724 279.088 60.257C278.419 58.8956 277.723 57.5478 277.002 56.2137C276.884 55.9847 276.757 55.7558 276.63 55.5269V85.6164H285.44V75.6452L284.819 73.8545Z" fill="#E6E6E6"/>
<path d="M279.088 60.2567H276.63V56.2134H277.002C277.725 57.5461 278.42 58.8939 279.088 60.2567Z" fill="#CCCCCC"/>
<path d="M284.819 73.8545H276.63V77.8978H285.44V75.6451L284.819 73.8545Z" fill="#CCCCCC"/>
<path d="M271.86 50.7012H263.052V85.6165H271.86V50.7012Z" fill="#E6E6E6"/>
<path d="M271.86 56.2144H263.052V60.2572H271.86V56.2144Z" fill="#CCCCCC"/>
<path d="M271.86 73.8555H263.052V77.8983H271.86V73.8555Z" fill="#CCCCCC"/>
<path d="M231.693 50.498H200.097C199.61 50.4988 199.143 50.6928 198.799 51.0377C198.454 51.3826 198.261 51.8501 198.26 52.3378V83.9808C198.261 84.1608 198.287 84.3397 198.337 84.5123C198.452 84.8904 198.685 85.2216 199.002 85.4572C199.318 85.6927 199.702 85.8201 200.097 85.8206H231.693C232.088 85.8201 232.472 85.6927 232.789 85.4572C233.105 85.2217 233.338 84.8904 233.453 84.5123C233.504 84.3397 233.53 84.1608 233.53 83.9808V52.3378C233.53 51.8501 233.336 51.3826 232.991 51.0377C232.647 50.6928 232.18 50.4988 231.693 50.498Z" fill="#E6E6E6"/>
<path d="M229.448 52.7466H202.342C201.855 52.7473 201.388 52.9414 201.044 53.2862C200.7 53.6311 200.506 54.0986 200.505 54.5863V81.7323C200.506 82.22 200.7 82.6875 201.044 83.0324C201.388 83.3772 201.855 83.5713 202.342 83.572H229.448C229.935 83.5713 230.402 83.3772 230.746 83.0324C231.091 82.6875 231.284 82.22 231.285 81.7323V54.5863C231.284 54.0986 231.091 53.6311 230.746 53.2862C230.402 52.9414 229.935 52.7473 229.448 52.7466Z" fill="white"/>
<path d="M224.721 57.481H207.069C206.582 57.4817 206.116 57.6758 205.771 58.0206C205.427 58.3655 205.233 58.833 205.232 59.3207V76.9983C205.233 77.486 205.427 77.9535 205.771 78.2983C206.116 78.6432 206.582 78.8373 207.069 78.838H224.721C225.207 78.8355 225.673 78.6408 226.017 78.2964C226.361 77.9519 226.555 77.4854 226.558 76.9983V59.3207C226.557 58.833 226.363 58.3655 226.019 58.0206C225.675 57.6758 225.208 57.4817 224.721 57.481Z" fill="#CCCCCC"/>
<path d="M223.633 73.8804L219.904 67.4132C219.833 67.2889 219.73 67.1857 219.606 67.1139C219.481 67.0421 219.341 67.0044 219.197 67.0044C219.054 67.0044 218.913 67.0421 218.789 67.1139C218.665 67.1857 218.562 67.2889 218.49 67.4132L215.768 72.1356L212.197 65.943C212.126 65.8187 212.023 65.7155 211.899 65.6437C211.774 65.572 211.634 65.5342 211.49 65.5342C211.347 65.5342 211.206 65.572 211.082 65.6437C210.958 65.7155 210.855 65.8187 210.783 65.943L207.055 72.4103L202.62 80.1039H211.174L210.327 81.5741H228.068L223.633 73.8804Z" fill="white"/>
<path d="M222.317 63.9325C223.735 63.9325 224.886 62.7807 224.886 61.3598C224.886 59.939 223.735 58.7871 222.317 58.7871C220.898 58.7871 219.748 59.939 219.748 61.3598C219.748 62.7807 220.898 63.9325 222.317 63.9325Z" fill="white"/>
<path d="M291.968 113.081C291.939 111.495 291.876 109.917 291.78 108.347C291.739 107.594 291.69 106.846 291.629 106.098H274.393C273.906 106.099 273.44 106.293 273.095 106.638C272.751 106.983 272.557 107.45 272.556 107.938V139.581C272.555 139.726 272.573 139.87 272.609 140.01C272.706 140.412 272.934 140.769 273.258 141.025C273.581 141.28 273.981 141.42 274.393 141.421H290.281C290.363 140.955 290.441 140.48 290.51 140.01C290.555 139.732 290.6 139.45 290.641 139.172C290.739 138.506 290.833 137.839 290.918 137.173C291.041 136.265 291.151 135.354 291.249 134.438C291.608 131.155 291.84 127.837 291.943 124.483V124.479C291.98 123.216 291.999 121.947 292 120.673V115.767C292 114.867 291.992 113.972 291.968 113.081Z" fill="#E6E6E6"/>
<path d="M291.968 113.081C291.939 111.495 291.876 109.917 291.78 108.347H276.639C276.152 108.347 275.685 108.541 275.34 108.886C274.996 109.231 274.802 109.699 274.802 110.186V137.332C274.802 137.82 274.996 138.288 275.34 138.632C275.685 138.977 276.152 139.171 276.639 139.172H290.641C290.739 138.506 290.833 137.839 290.918 137.173C291.041 136.265 291.151 135.354 291.249 134.438C291.608 131.155 291.839 127.837 291.943 124.483V124.479C291.98 123.216 291.999 121.947 292 120.673V115.767C292 114.867 291.992 113.972 291.968 113.081Z" fill="white"/>
<path d="M291.967 113.081H281.366C280.879 113.082 280.412 113.276 280.068 113.621C279.723 113.966 279.53 114.433 279.529 114.921V132.598C279.53 133.086 279.723 133.554 280.068 133.898C280.412 134.243 280.879 134.437 281.366 134.438H291.249C291.608 131.155 291.839 127.837 291.943 124.483V124.479C291.98 123.216 291.999 121.947 292 120.673V115.767C292 114.868 291.992 113.972 291.967 113.081Z" fill="#CCCCCC"/>
<path d="M291.943 124.483C291.841 127.836 291.61 131.154 291.249 134.438C291.151 135.354 291.041 136.266 290.918 137.173H284.623L285.473 135.705H276.916L279.529 131.172L281.35 128.011L285.081 121.544C285.152 121.419 285.255 121.315 285.379 121.243C285.503 121.171 285.644 121.133 285.787 121.133C285.93 121.133 286.071 121.171 286.195 121.243C286.319 121.315 286.422 121.419 286.493 121.544L290.065 127.737L291.943 124.483Z" fill="white"/>
<path d="M261.012 33.0618H187.087V29.0186H257.346C258.595 30.3391 259.817 31.6868 261.012 33.0618Z" fill="#E6E6E6"/>
<path d="M226.354 5.02051C229.367 6.68034 232.303 8.45872 235.163 10.3557V30.1183H226.354V5.02051Z" fill="#E6E6E6"/>
<path d="M235.161 18.3584H226.354V22.4012H235.161V18.3584Z" fill="#CCCCCC"/>
<path d="M248.741 20.7396V30.1181H239.931V13.6792C241.985 15.1796 243.992 16.74 245.953 18.3602C246.891 19.137 247.821 19.9301 248.741 20.7396Z" fill="#E6E6E6"/>
<path d="M248.741 20.7397V22.3995H239.931V18.3604H245.953C246.891 19.1371 247.821 19.9302 248.741 20.7397Z" fill="#CCCCCC"/>
<path d="M217.361 0.515124C219.692 1.56578 221.983 2.68596 224.235 3.87567L222.423 7.53874L216.401 19.7258L214.609 23.348L211.805 29.0184L211.188 30.2653L208.678 29.0184L203.297 26.3488L206.714 19.4315H206.718L208.506 15.8093L214.532 3.62219L216.303 0.040885L216.324 0L217.361 0.515124Z" fill="#E6E6E6"/>
<path d="M224.215 3.91246L222.423 7.53874L214.532 3.62219L216.303 0.0408825L216.324 0L217.361 0.51512L224.215 3.91246Z" fill="#CCCCCC"/>
<path d="M208.506 15.8105L206.715 19.4336L214.609 23.3473L216.4 19.7241L208.506 15.8105Z" fill="#CCCCCC"/>
<path d="M290.51 140.01C290.441 140.48 290.363 140.955 290.281 141.421C290.139 142.304 289.983 143.179 289.816 144.054H187.087V140.01H290.51Z" fill="#E6E6E6"/>
<path d="M235.161 106.198H226.354V141.114H235.161V106.198Z" fill="#E6E6E6"/>
<path d="M235.161 111.711H226.354V115.754H235.161V111.711Z" fill="#CCCCCC"/>
<path d="M235.161 129.353H226.354V133.395H235.161V129.353Z" fill="#CCCCCC"/>
<path d="M248.74 106.198H239.932V141.114H248.74V106.198Z" fill="#E6E6E6"/>
<path d="M248.74 111.711H239.932V115.754H248.74V111.711Z" fill="#CCCCCC"/>
<path d="M248.74 129.353H239.932V133.395H248.74V129.353Z" fill="#CCCCCC"/>
<path d="M218.765 106.054L203.296 137.344L211.189 141.258L226.658 109.967L218.765 106.054Z" fill="#E6E6E6"/>
<path d="M216.322 110.995L214.531 114.618L222.424 118.531L224.216 114.908L216.322 110.995Z" fill="#CCCCCC"/>
<path d="M208.506 126.805L206.715 130.428L214.609 134.341L216.4 130.718L208.506 126.805Z" fill="#CCCCCC"/>
<path d="M119.527 155.591C119.895 155.803 120.246 156.044 120.576 156.312L156.92 144.985L158.969 135.955L172.981 137.271L170.905 153.61C170.737 154.93 170.146 156.16 169.221 157.115C168.296 158.07 167.086 158.699 165.774 158.907L123.003 165.689C122.379 167.203 121.309 168.492 119.936 169.383C118.563 170.274 116.952 170.725 115.317 170.676C113.681 170.628 112.1 170.082 110.782 169.111C109.464 168.14 108.472 166.79 107.939 165.241C107.406 163.692 107.356 162.017 107.796 160.439C108.237 158.861 109.146 157.455 110.404 156.408C111.662 155.36 113.209 154.721 114.839 154.575C116.468 154.429 118.103 154.784 119.527 155.591Z" fill="#FFB8B8"/>
<path d="M179.457 142.688L179.216 138.567V138.563L179.151 137.435L178.441 125.301C178.653 122.771 177.856 120.26 176.224 118.318C174.592 116.376 172.258 115.16 169.733 114.937C169.007 114.872 168.275 114.891 167.553 114.994C165.409 115.298 163.429 116.319 161.936 117.89C160.443 119.462 159.524 121.493 159.328 123.653L157.854 129.794L155.278 140.534C155.096 141.285 155.171 142.076 155.493 142.779C155.814 143.483 156.363 144.057 157.05 144.409C157.447 144.618 157.881 144.746 158.328 144.786L162.622 145.17L166.757 145.538L171.529 145.963L171.872 145.992L172.754 146.073L175.706 146.335H175.714C176.207 146.375 176.703 146.309 177.168 146.143C177.634 145.977 178.06 145.713 178.416 145.37C178.676 145.117 178.895 144.824 179.065 144.503C179.363 143.947 179.499 143.318 179.457 142.688Z" fill="#2A9235"/>
<path d="M219.339 92.7187C219.339 106.711 206.42 104.594 190.484 104.594C174.547 104.594 161.628 106.711 161.628 92.7187C161.628 78.7265 167.939 53.9243 190.484 53.9243C213.805 53.9243 219.339 78.7265 219.339 92.7187Z" fill="#2F2E41"/>
<path d="M204.117 98.8755C211.7 91.2816 211.7 78.9694 204.117 71.3755C196.534 63.7815 184.24 63.7815 176.657 71.3755C169.075 78.9694 169.075 91.2816 176.657 98.8755C184.24 106.469 196.534 106.469 204.117 98.8755Z" fill="#FFB8B8"/>
<path d="M217.72 112.746C217.346 112.385 216.949 112.049 216.532 111.74C213.892 109.743 210.575 108.864 207.294 109.291L171.513 113.825C168.236 114.233 165.245 115.903 163.176 118.481C161.107 121.059 160.122 124.342 160.43 127.635C160.532 128.78 160.646 129.986 160.773 131.241C160.936 132.815 161.12 134.467 161.332 136.176C161.683 139.05 162.112 142.083 162.622 145.17C163.067 147.827 163.573 150.521 164.153 153.183C164.32 153.951 164.494 154.717 164.675 155.48C164.675 155.483 164.675 155.485 164.676 155.487C164.677 155.489 164.678 155.491 164.68 155.493C164.7 155.587 164.72 155.681 164.745 155.771C164.744 155.778 164.745 155.785 164.749 155.791C165.002 156.854 165.267 157.905 165.545 158.943C165.651 159.328 165.753 159.708 165.859 160.084C166.145 161.106 166.447 162.108 166.757 163.093C169.088 170.423 172.17 176.666 176.24 179.985C176.293 180.035 176.347 180.075 176.404 180.12L176.567 180.247L176.804 180.174L177.808 179.875L178.665 179.613L189.834 176.249L192.614 175.411L201.546 172.717H201.55L209.719 170.255L210.715 169.953L217.732 167.839L217.957 165.215L218.259 161.731L218.438 159.638L219.859 143.13L220.688 133.498L221.586 123.04C221.753 121.144 221.492 119.234 220.823 117.452C220.154 115.671 219.093 114.062 217.72 112.746Z" fill="#2F2E41"/>
<path d="M237.727 192.626C237.633 192.352 237.543 192.078 237.449 191.809C233.253 179.544 227.064 170.268 217.957 165.214C217.953 165.214 217.953 165.21 217.948 165.21L217.793 165.125L209.858 167.876L208.878 168.215L207.857 168.571L207.845 168.575L200.415 171.151L200.403 171.155L194.574 173.174H194.569L189.177 175.043H189.173L187.92 175.48L178.494 178.747L177.4 179.127L176.42 179.466L176.269 179.519L176.24 179.985L175.567 191.809L175.522 192.626L174.681 207.381L146.754 247H165.859C172.261 247.001 178.653 246.513 184.98 245.54L202.905 226.195C203.056 226.039 203.245 225.927 203.454 225.872C203.663 225.816 203.884 225.819 204.091 225.879C204.299 225.94 204.486 226.056 204.632 226.216C204.779 226.375 204.879 226.571 204.922 226.784L207.555 239.866C220.527 235.272 232.661 228.586 243.479 220.071C242.221 209.911 240.384 200.651 237.727 192.626Z" fill="#2F2E41"/>
<path d="M167.953 83.218H175.632L179.02 73.7174L179.698 83.218H183.368L185.345 77.676L185.74 83.218H213.014C213.014 80.5148 212.483 77.8381 211.45 75.3406C210.417 72.8431 208.903 70.5739 206.994 68.6624C205.085 66.751 202.819 65.2347 200.326 64.2002C197.832 63.1657 195.159 62.6333 192.46 62.6333H188.507C183.056 62.6333 177.828 64.8021 173.973 68.6624C170.118 72.5228 167.953 77.7586 167.953 83.218Z" fill="#2F2E41"/>
<path d="M120.715 186.244C119.461 186.771 118.107 187.017 116.749 186.964C115.39 186.911 114.059 186.56 112.85 185.936C111.641 185.312 110.584 184.43 109.752 183.352C108.92 182.275 108.335 181.028 108.036 179.699L75.1882 175.973L86.1992 162.768L115.704 168.331C117.966 167.976 120.28 168.466 122.206 169.706C124.132 170.946 125.537 172.85 126.154 175.058C126.772 177.266 126.56 179.624 125.557 181.686C124.555 183.747 122.832 185.369 120.715 186.244Z" fill="#A0616A"/>
<path d="M103.005 161.801L89.1215 159.315L88.1133 159.135C87.3075 158.991 86.5414 158.678 85.8651 158.216C85.1889 157.754 84.6178 157.154 84.1895 156.456C83.7611 155.757 83.4852 154.976 83.3798 154.163C83.2744 153.35 83.3419 152.524 83.578 151.739L90.3952 129.054L90.5993 128.379C91.4505 125.496 91.2989 122.408 90.1694 119.622C89.0399 116.836 86.9995 114.517 84.3821 113.044C82.6104 112.059 80.6356 111.496 78.6113 111.4C76.5871 111.303 74.5679 111.676 72.7108 112.488C70.8538 113.301 69.2088 114.531 67.904 116.084C66.5991 117.637 65.6695 119.47 65.1874 121.441L56.4924 156.981L56.1699 158.297C55.5626 160.777 55.4963 163.359 55.9757 165.866C56.4551 168.374 57.4688 170.749 58.9477 172.829C60.4266 174.909 62.336 176.645 64.5456 177.918C66.7552 179.192 69.2131 179.974 71.7517 180.21C71.7802 180.214 71.8047 180.214 71.8334 180.218L77.0383 180.68L83.7901 181.281L92.2812 182.037L100.205 182.745C101.243 182.839 102.278 182.539 103.105 181.904C103.933 181.27 104.491 180.347 104.671 179.319C104.683 179.262 104.691 179.204 104.699 179.147L106.381 166.572L106.398 166.457C106.543 165.392 106.27 164.313 105.638 163.445C105.005 162.576 104.062 161.987 103.005 161.801Z" fill="#CCCCCC"/>
<path d="M81.615 66.5163C76.0727 77.429 71.7046 88.6845 59.4795 88.6845C53.6088 88.6845 47.9785 86.3489 43.8273 82.1916C39.6761 78.0342 37.344 72.3957 37.344 66.5163C37.344 54.2731 47.2553 44.5014 59.4795 44.3481C71.9037 44.1923 91.9308 46.2044 81.615 66.5163Z" fill="#2F2E41"/>
<path d="M95.5185 209.278L95.0162 204.257L94.6406 204.278L28.6351 207.463L28.8066 212.544L29.0966 221.248C39.3099 229.04 50.6519 235.223 62.7299 239.584L63.1586 236.256C63.1961 235.985 63.326 235.735 63.5263 235.549C63.7267 235.362 63.9851 235.251 64.2579 235.234C64.5307 235.217 64.8011 235.294 65.0233 235.454C65.2455 235.613 65.4059 235.845 65.4772 236.109L66.7794 240.97C77.3008 244.368 88.2269 246.349 99.27 246.861L95.5185 209.278Z" fill="#2F2E41"/>
<path d="M74.2987 83.4209C81.8814 75.827 81.8814 63.5148 74.2987 55.9209C66.7159 48.3269 54.4219 48.3269 46.8391 55.9209C39.2564 63.5148 39.2564 75.827 46.8391 83.4209C54.4219 91.0149 66.7159 91.0149 74.2987 83.4209Z" fill="#A0616A"/>
<path d="M99.3109 204.597L95.4613 192.626L95.396 192.422L95.2 191.808L94.1019 188.399C93.7467 187.291 93.4079 186.179 93.0935 185.063C92.8037 184.057 92.5329 183.049 92.2813 182.038C91.9221 180.631 91.5955 179.219 91.3016 177.802C90.3053 173.039 89.641 168.213 89.3135 163.358C89.2236 162.013 89.1596 160.666 89.1215 159.315C88.8824 151.037 89.6265 142.761 91.3382 134.659C92.8284 127.653 92.0325 120.353 89.0678 113.834C86.1031 107.315 81.1264 101.922 74.8706 98.4491C70.7656 96.177 66.2221 94.8123 61.5462 94.4467C61.2237 94.4222 60.9011 94.4018 60.5746 94.3813C55.6352 94.0687 50.6887 94.8711 46.1003 96.7293C41.5119 98.5875 37.3988 101.454 34.0647 105.117C32.2788 107.065 30.7278 109.217 29.4434 111.527C25.8799 117.957 24.5421 125.388 25.6389 132.66L30.2272 163.514L29.1823 176.502L27.9495 191.808L27.8841 192.626L26.5696 208.946C26.5073 209.707 26.6912 210.468 27.0941 211.116C27.497 211.764 28.0974 212.264 28.8066 212.544C29.222 212.711 29.6656 212.795 30.113 212.794C30.1784 212.794 30.2396 212.794 30.3049 212.789L95.5185 209.278L96.1145 209.245C96.6585 209.217 97.1887 209.063 97.6641 208.797C98.1395 208.531 98.5475 208.159 98.8564 207.71C99.1654 207.26 99.3671 206.746 99.4459 206.206C99.5247 205.666 99.4785 205.116 99.3109 204.597Z" fill="#CCCCCC"/>
<path d="M81.1732 58.6815C76.7362 61.7442 71.4698 63.3741 66.081 63.3526C68.0033 64.6874 70.1916 65.589 72.4953 65.9953C65.3305 67.5345 57.9256 67.5762 50.744 66.1177C49.1477 65.8614 47.6073 65.3316 46.1906 64.5515C44.8117 63.7132 43.6581 62.3784 43.38 60.7871C42.9028 58.0569 45.0271 55.5763 47.2347 53.9046C50.6148 51.3841 54.512 49.6476 58.6444 48.8206C62.7768 47.9936 67.0411 48.0969 71.1288 49.1229C73.798 49.8138 76.4718 50.9813 78.2055 53.1279C79.9391 55.2746 80.4527 58.5841 78.8009 60.7946L81.1732 58.6815Z" fill="#2F2E41"/>
<path d="M82.1659 182.198C80.9238 182.753 79.5754 183.028 78.2156 183.004C76.8559 182.981 75.5179 182.658 74.2958 182.061C73.0738 181.463 71.9974 180.605 71.1426 179.545C70.2878 178.486 69.6753 177.252 69.3482 175.93L36.4275 172.917L47.1504 159.477L76.7686 164.398C79.0226 163.995 81.3459 164.434 83.2984 165.632C85.2508 166.83 86.6966 168.703 87.3619 170.897C88.0272 173.091 87.8657 175.454 86.9081 177.536C85.9504 179.619 84.2631 181.278 82.1659 182.198Z" fill="#A0616A"/>
<path d="M63.9342 158.146L56.4923 156.981L48.9851 155.803C48.1766 155.677 47.4039 155.38 46.7179 154.933C46.0319 154.487 45.448 153.9 45.0046 153.211C44.5612 152.522 44.2684 151.747 44.1453 150.937C44.0223 150.127 44.0717 149.299 44.2905 148.51L50.8057 125.002C51.5941 122.101 51.3757 119.018 50.1862 116.257C48.9966 113.496 46.9064 111.222 44.2578 109.806C42.4686 108.85 40.4816 108.325 38.4544 108.272C36.4272 108.218 34.4154 108.639 32.5787 109.5C30.7362 110.347 29.1154 111.611 27.8438 113.192C26.5722 114.773 25.6846 116.629 25.251 118.612L17.0335 155.656C16.4799 158.155 16.4719 160.744 17.01 163.246C17.5481 165.748 18.6197 168.104 20.1513 170.153C21.6829 172.202 23.6384 173.896 25.8841 175.118C28.1297 176.34 30.6125 177.062 33.1625 177.234L61.587 179.143C62.6263 179.214 63.6544 178.892 64.4678 178.24C65.2812 177.588 65.8206 176.654 65.9793 175.623C65.9917 175.566 65.9957 175.509 66.0038 175.451L67.4123 162.843L67.4245 162.729C67.5458 161.661 67.2504 160.588 66.5999 159.734C65.9493 158.88 64.9942 158.311 63.9342 158.146Z" fill="#CCCCCC"/>
<path d="M189.861 138.604L188.158 139.535L167.171 151.003L165.467 151.934C164.64 152.386 164.027 153.149 163.761 154.054C163.496 154.96 163.599 155.934 164.05 156.762L179.678 185.449C180.131 186.277 180.892 186.891 181.796 187.157C182.7 187.423 183.673 187.319 184.5 186.868L184.505 186.866L208.89 173.541L208.895 173.539C209.721 173.086 210.335 172.323 210.6 171.418C210.866 170.512 210.762 169.539 210.312 168.71L194.683 140.023C194.231 139.196 193.469 138.581 192.565 138.315C191.662 138.049 190.689 138.153 189.861 138.604Z" fill="#E6E6E6"/>
<path d="M190.352 139.503L188.334 140.606L167.975 151.731L165.957 152.833C165.368 153.156 164.932 153.699 164.742 154.344C164.553 154.988 164.627 155.682 164.948 156.272L180.577 184.958C180.899 185.548 181.441 185.985 182.085 186.175C182.728 186.364 183.421 186.29 184.01 185.969L184.015 185.967L208.4 172.642L208.405 172.64C208.993 172.317 209.43 171.774 209.619 171.129C209.809 170.484 209.735 169.791 209.414 169.201L193.785 140.514C193.463 139.925 192.921 139.487 192.277 139.298C191.633 139.108 190.941 139.182 190.352 139.503Z" fill="white"/>
<path d="M190.924 147.602C190.848 147.465 190.721 147.363 190.571 147.318C190.42 147.274 190.258 147.291 190.12 147.365L189.308 147.811L181.025 152.337C180.888 152.412 180.786 152.54 180.742 152.69C180.699 152.841 180.716 153.003 180.791 153.14C180.866 153.278 180.992 153.38 181.142 153.425C181.292 153.47 181.454 153.453 181.592 153.379L190.687 148.408C190.825 148.332 190.927 148.205 190.971 148.054C191.016 147.903 190.999 147.741 190.924 147.602Z" fill="#E6E6E6"/>
<path d="M194.023 148.187C193.986 148.119 193.936 148.059 193.875 148.01C193.815 147.961 193.746 147.925 193.671 147.903C193.597 147.882 193.519 147.875 193.442 147.884C193.365 147.892 193.29 147.916 193.223 147.954L181.984 154.095C181.916 154.132 181.856 154.182 181.807 154.243C181.759 154.303 181.722 154.373 181.701 154.448C181.679 154.522 181.672 154.6 181.68 154.678C181.689 154.755 181.712 154.83 181.749 154.898C181.787 154.966 181.837 155.026 181.897 155.075C181.958 155.124 182.027 155.16 182.102 155.182C182.176 155.204 182.254 155.211 182.332 155.202C182.409 155.194 182.483 155.17 182.552 155.133L183.074 154.847L186.344 153.06H186.348L193.786 148.992C193.855 148.956 193.916 148.905 193.965 148.845C194.014 148.784 194.051 148.714 194.073 148.639C194.095 148.564 194.102 148.486 194.093 148.408C194.085 148.33 194.061 148.255 194.023 148.187Z" fill="#E6E6E6"/>
<path d="M181.809 157.974L178.241 151.421C178.203 151.355 178.142 151.307 178.069 151.286C177.997 151.265 177.919 151.274 177.853 151.31L176.122 152.255L175.224 152.745L170.403 155.378L169.468 155.889C169.402 155.926 169.354 155.988 169.333 156.061C169.313 156.134 169.321 156.211 169.358 156.278L169.586 156.699L172.926 162.831C172.962 162.897 173.023 162.945 173.095 162.966C173.167 162.986 173.244 162.978 173.309 162.942L179.065 159.798L179.963 159.307L181.694 158.363C181.727 158.345 181.757 158.321 181.78 158.291C181.804 158.262 181.822 158.229 181.832 158.192C181.843 158.156 181.846 158.118 181.842 158.081C181.838 158.044 181.827 158.007 181.809 157.974Z" fill="#E6E6E6"/>
<path d="M195.435 155.918C195.36 155.78 195.234 155.678 195.084 155.634C194.934 155.589 194.772 155.606 194.635 155.681L182.298 162.422C182.189 162.482 182.102 162.575 182.049 162.687C181.995 162.799 181.978 162.925 182 163.048C182.009 163.111 182.03 163.172 182.062 163.228C182.093 163.284 182.133 163.335 182.18 163.379L182.184 163.383C182.276 163.465 182.39 163.517 182.512 163.532C182.634 163.547 182.758 163.523 182.866 163.465L195.202 156.723C195.271 156.686 195.331 156.635 195.379 156.574C195.428 156.514 195.464 156.444 195.486 156.369C195.507 156.294 195.514 156.216 195.505 156.138C195.497 156.061 195.473 155.986 195.435 155.918Z" fill="#E6E6E6"/>
<path d="M198.538 156.503C198.5 156.434 198.449 156.374 198.389 156.326C198.328 156.277 198.258 156.241 198.184 156.219C198.109 156.197 198.031 156.191 197.953 156.199C197.876 156.208 197.801 156.232 197.733 156.27L183.254 164.18C183.145 164.238 183.057 164.329 183.003 164.44C182.95 164.551 182.933 164.676 182.956 164.798V164.802C182.964 164.865 182.985 164.926 183.017 164.982C183.048 165.04 183.09 165.093 183.139 165.137C183.23 165.221 183.344 165.274 183.467 165.289C183.589 165.304 183.713 165.279 183.821 165.219L198.301 157.308C198.438 157.232 198.541 157.105 198.585 156.954C198.629 156.803 198.612 156.641 198.538 156.503Z" fill="#E6E6E6"/>
<path d="M178.166 168.984C179.553 168.984 180.677 167.859 180.677 166.47C180.677 165.081 179.553 163.956 178.166 163.956C176.78 163.956 175.656 165.081 175.656 166.47C175.656 167.859 176.78 168.984 178.166 168.984Z" fill="#E6E6E6"/>
<path d="M197.21 127.566L195.506 128.497L174.519 139.965L172.815 140.895C171.988 141.348 171.375 142.111 171.109 143.016C170.844 143.922 170.947 144.896 171.398 145.724L187.026 174.411C187.479 175.239 188.24 175.853 189.144 176.119C190.048 176.385 191.021 176.281 191.848 175.83L191.853 175.828L216.238 162.503L216.243 162.501C217.069 162.048 217.683 161.285 217.948 160.38C218.214 159.474 218.11 158.5 217.66 157.672L202.031 128.985C201.579 128.158 200.817 127.543 199.914 127.277C199.01 127.011 198.037 127.115 197.21 127.566Z" fill="#CCCCCC"/>
<path d="M197.7 128.465L195.682 129.567L175.323 140.692L173.305 141.795C172.717 142.117 172.28 142.66 172.09 143.305C171.901 143.95 171.975 144.643 172.296 145.233L187.925 173.92C188.247 174.509 188.789 174.947 189.433 175.136C190.076 175.326 190.769 175.252 191.358 174.931L191.363 174.928L215.748 161.603L215.753 161.601C216.341 161.278 216.778 160.735 216.967 160.091C217.157 159.446 217.083 158.752 216.762 158.162L201.133 129.476C200.811 128.886 200.269 128.449 199.625 128.259C198.981 128.07 198.289 128.144 197.7 128.465Z" fill="white"/>
<path d="M198.272 136.564C198.196 136.426 198.069 136.324 197.919 136.28C197.768 136.235 197.606 136.252 197.468 136.327L193.28 138.616L192.112 139.254L188.373 141.298C188.236 141.374 188.134 141.501 188.09 141.652C188.047 141.802 188.064 141.964 188.139 142.102C188.214 142.239 188.34 142.342 188.49 142.387C188.64 142.431 188.802 142.415 188.94 142.341L193.349 139.933L194.272 139.426L198.035 137.369C198.173 137.293 198.275 137.166 198.319 137.015C198.364 136.865 198.347 136.702 198.272 136.564Z" fill="#CCCCCC"/>
<path d="M201.371 137.148C201.334 137.08 201.283 137.02 201.223 136.971C201.163 136.923 201.093 136.886 201.019 136.865C200.945 136.843 200.867 136.836 200.79 136.845C200.713 136.854 200.638 136.878 200.57 136.915L194.729 140.108L193.831 140.599L189.332 143.056C189.264 143.093 189.204 143.144 189.155 143.204C189.106 143.265 189.07 143.334 189.048 143.409C189.027 143.484 189.02 143.562 189.028 143.639C189.036 143.716 189.06 143.791 189.097 143.859C189.134 143.927 189.185 143.988 189.245 144.036C189.306 144.085 189.375 144.121 189.45 144.143C189.524 144.165 189.602 144.172 189.679 144.164C189.757 144.155 189.831 144.132 189.899 144.094L194.398 141.637L195.296 141.147L201.134 137.954C201.203 137.917 201.263 137.867 201.313 137.806C201.362 137.746 201.399 137.676 201.421 137.601C201.443 137.526 201.45 137.447 201.441 137.37C201.432 137.292 201.408 137.217 201.371 137.148Z" fill="#CCCCCC"/>
<path d="M189.157 146.936L186.311 141.711L185.821 140.812L185.589 140.382C185.552 140.316 185.49 140.268 185.417 140.247C185.345 140.227 185.267 140.235 185.201 140.272L179.425 143.428L176.816 144.851C176.75 144.888 176.702 144.95 176.681 145.022C176.661 145.095 176.669 145.173 176.706 145.239L176.938 145.664L177.192 146.134L177.428 146.564V146.568L180.274 151.793C180.31 151.858 180.371 151.906 180.443 151.927C180.515 151.948 180.592 151.939 180.657 151.903L189.042 147.324C189.075 147.306 189.105 147.282 189.128 147.253C189.152 147.224 189.17 147.19 189.18 147.154C189.191 147.118 189.194 147.08 189.19 147.042C189.186 147.005 189.175 146.969 189.157 146.936Z" fill="#2A9235"/>
<path d="M202.783 144.879C202.708 144.742 202.582 144.64 202.432 144.595C202.282 144.551 202.12 144.568 201.983 144.642L198.297 146.658L197.399 147.148L193.839 149.09L189.646 151.384C189.578 151.421 189.518 151.471 189.469 151.532C189.42 151.593 189.383 151.663 189.361 151.737C189.339 151.812 189.332 151.89 189.341 151.968C189.349 152.046 189.372 152.121 189.41 152.189C189.447 152.258 189.497 152.318 189.558 152.367C189.618 152.416 189.688 152.452 189.763 152.474C189.837 152.496 189.916 152.504 189.993 152.495C190.07 152.487 190.145 152.464 190.214 152.426L197.966 148.191L198.864 147.7L202.55 145.685C202.619 145.647 202.679 145.597 202.727 145.536C202.776 145.475 202.812 145.405 202.834 145.33C202.855 145.256 202.862 145.177 202.853 145.1C202.845 145.022 202.821 144.947 202.783 144.879Z" fill="#CCCCCC"/>
<path d="M205.886 145.464C205.848 145.396 205.797 145.336 205.737 145.287C205.676 145.238 205.606 145.202 205.532 145.181C205.457 145.159 205.379 145.152 205.301 145.161C205.224 145.17 205.149 145.193 205.081 145.231L199.256 148.416L198.358 148.906L190.602 153.142C190.533 153.179 190.473 153.229 190.424 153.29C190.375 153.35 190.338 153.42 190.316 153.495C190.294 153.569 190.287 153.648 190.295 153.725C190.304 153.803 190.327 153.878 190.365 153.946C190.402 154.015 190.452 154.075 190.513 154.124C190.574 154.173 190.643 154.209 190.718 154.231C190.793 154.252 190.871 154.259 190.949 154.25C191.026 154.242 191.101 154.218 191.169 154.18L198.921 149.945L199.819 149.454L205.649 146.269C205.786 146.194 205.889 146.066 205.933 145.916C205.977 145.765 205.96 145.602 205.886 145.464Z" fill="#CCCCCC"/>
<path d="M185.514 157.946C186.901 157.946 188.025 156.82 188.025 155.431C188.025 154.043 186.901 152.917 185.514 152.917C184.128 152.917 183.004 154.043 183.004 155.431C183.004 156.82 184.128 157.946 185.514 157.946Z" fill="#CCCCCC"/>
<path d="M187.201 169.568C187.624 169.61 188.042 169.684 188.453 169.792L216.927 144.496L215.086 135.421L228.398 130.848L233.216 146.596C233.606 147.868 233.572 149.233 233.122 150.484C232.671 151.736 231.826 152.807 230.716 153.538L194.517 177.339C194.57 178.977 194.125 180.592 193.239 181.97C192.354 183.347 191.07 184.422 189.56 185.052C188.049 185.681 186.383 185.835 184.783 185.493C183.183 185.151 181.725 184.329 180.603 183.137C179.48 181.945 178.747 180.439 178.5 178.819C178.254 177.2 178.505 175.543 179.221 174.07C179.938 172.597 181.085 171.377 182.51 170.573C183.936 169.769 185.572 169.418 187.201 169.568Z" fill="#FFB8B8"/>
<path d="M236.527 133.114L228.46 117.685C227.63 115.338 225.922 113.406 223.696 112.297C221.471 111.188 218.902 110.988 216.532 111.74C216.442 111.765 216.356 111.793 216.267 111.826C213.865 112.667 211.895 114.427 210.788 116.721C209.681 119.016 209.529 121.656 210.364 124.062L213.601 141.114C213.694 141.603 213.89 142.065 214.178 142.47C214.465 142.875 214.837 143.213 215.266 143.461C215.736 143.736 216.266 143.893 216.809 143.919C217.257 143.947 217.705 143.885 218.128 143.735L219.859 143.13L230.971 139.254L234.604 137.987C235.073 137.823 235.5 137.559 235.858 137.215C236.216 136.871 236.496 136.453 236.678 135.991C236.861 135.528 236.942 135.032 236.915 134.536C236.889 134.039 236.757 133.554 236.527 133.114Z" fill="#2A9235"/>
<path d="M266.978 192.626H0.408223C0.299955 192.626 0.196122 192.583 0.119565 192.506C0.0430087 192.43 0 192.326 0 192.217C0 192.109 0.0430087 192.005 0.119565 191.928C0.196122 191.852 0.299955 191.809 0.408223 191.809H266.978C267.086 191.809 267.19 191.852 267.266 191.928C267.343 192.005 267.386 192.109 267.386 192.217C267.386 192.326 267.343 192.43 267.266 192.506C267.19 192.583 267.086 192.626 266.978 192.626Z" fill="#3F3D56"/>
<path d="M46.3317 185.063V185.267C46.3331 186.653 46.7361 188.009 47.4919 189.17C48.2477 190.331 49.3238 191.248 50.5895 191.809C51.4974 192.215 52.4811 192.424 53.4756 192.422H119.404V185.063H46.3317Z" fill="#3F3D56"/>
<path d="M165.435 136.564C164.388 134.401 162.778 132.562 160.773 131.241C159.864 130.638 158.883 130.152 157.854 129.794C156.451 129.303 154.976 129.053 153.49 129.054H90.2156C86.6982 129.058 83.326 130.459 80.8388 132.95C78.3515 135.441 76.9525 138.818 76.9484 142.341V179.135C76.9473 179.651 76.9773 180.167 77.0383 180.68C77.1279 181.447 77.2836 182.205 77.5035 182.945C77.7217 183.674 78.0031 184.383 78.3445 185.063C79.4434 187.274 81.1368 189.135 83.234 190.435C85.3312 191.735 87.7491 192.423 90.2156 192.422H153.49C155.233 192.422 156.958 192.079 158.568 191.412C160.178 190.744 161.641 189.765 162.873 188.531C164.105 187.298 165.082 185.833 165.749 184.22C166.415 182.608 166.758 180.88 166.757 179.135V142.341C166.76 140.339 166.308 138.364 165.435 136.564Z" fill="#3F3D56"/>
<path d="M125.323 164.008C127.126 164.008 128.589 162.544 128.589 160.738C128.589 158.932 127.126 157.467 125.323 157.467C123.519 157.467 122.057 158.932 122.057 160.738C122.057 162.544 123.519 164.008 125.323 164.008Z" fill="white"/>
</g>
<defs>
<clipPath id="clip0_78_553">
<rect width="292" height="247" fill="white"/>
</clipPath>
</defs>
</svg>
