<svg width="360" height="252" viewBox="0 0 360 252" fill="none" xmlns="http://www.w3.org/2000/svg">
<g filter="url(#filter0_d_78_487)">
<mask id="mask0_78_487" style="mask-type:alpha" maskUnits="userSpaceOnUse" x="26" y="28" width="307" height="172">
<rect x="26" y="28" width="307" height="172" rx="8" fill="#D1BBFF"/>
</mask>
<g mask="url(#mask0_78_487)">
<rect x="26" y="28" width="307" height="172" rx="8" fill="url(#paint0_linear_78_487)"/>
<path d="M209.007 202.163C207.04 206.458 209.201 211.532 213.753 212.795C232.583 218.017 252.584 219.423 272.209 216.856C294.787 213.904 316.059 205.8 333.851 193.372C351.643 180.945 365.317 164.639 373.478 146.12C381.64 127.601 383.994 107.533 380.303 87.9655C376.611 68.3977 367.004 50.0316 352.465 34.7428C337.925 19.454 318.973 7.79054 297.545 0.943546C276.116 -5.90345 252.979 -7.68856 230.496 -4.22949C211.191 -1.25927 192.962 5.48619 177.169 15.4521C173.06 18.0448 172.604 23.7351 175.998 27.2113L249.165 102.151C251.476 104.518 252.092 108.063 250.715 111.07L209.007 202.163Z" fill="white" fill-opacity="0.12"/>
<path d="M209.821 200.107C206.957 203.895 207.997 209.348 212.217 211.526C229.501 220.444 248.884 225.722 268.883 226.904C291.931 228.266 314.971 224.14 335.649 214.948C356.328 205.755 373.904 191.826 386.583 174.582C399.262 157.337 406.589 137.397 407.816 116.796C409.043 96.1954 404.125 75.6729 393.566 57.3249C383.007 38.9768 367.184 23.4606 347.714 12.3609C328.244 1.26125 305.824 -5.02408 282.744 -5.85311C262.655 -6.57472 242.693 -3.14007 224.401 4.13717C220.021 5.87945 218.426 11.1432 220.833 15.1956L274.755 105.983C276.415 108.778 276.218 112.3 274.257 114.894L209.821 200.107Z" fill="white" fill-opacity="0.12"/>
<g filter="url(#filter1_d_78_487)">
<path d="M269.406 173.131L274.101 163.983V163.947H268.527V162.562H275.72V163.983L271.127 173.131H269.406ZM278.206 175.387H276.8L280.55 162.562H281.956L278.206 175.387ZM283.138 165.661C283.138 163.756 284.669 162.365 286.771 162.365C288.785 162.365 290.287 163.646 290.287 165.324C290.287 166.554 289.628 167.47 288.082 169.052L285.438 171.71V171.747H290.455V173.131H283.226V172.018L287.042 168.129C288.331 166.789 288.668 166.232 288.668 165.404C288.668 164.467 287.818 163.72 286.72 163.72C285.563 163.72 284.691 164.555 284.691 165.653V165.675H283.138V165.661ZM296.149 173.329C294.04 173.329 292.495 172.04 292.399 170.194H293.967C294.084 171.242 294.985 171.959 296.164 171.959C297.497 171.959 298.42 171.029 298.42 169.704C298.42 168.378 297.497 167.426 296.179 167.426C295.263 167.426 294.472 167.843 294.062 168.539H292.56L293.117 162.562H299.409V163.947H294.435L294.142 167.191H294.179C294.641 166.525 295.505 166.122 296.538 166.122C298.566 166.122 300.024 167.609 300.024 169.66C300.024 171.828 298.427 173.329 296.149 173.329Z" fill="white"/>
</g>
<g filter="url(#filter2_d_78_487)">
<path d="M48.5054 170.187H50.124C50.2412 171.234 51.2593 171.923 52.6509 171.923C53.9839 171.923 54.9434 171.234 54.9434 170.29C54.9434 169.469 54.3647 168.979 52.9951 168.642L51.6255 168.312C49.6846 167.843 48.7837 166.935 48.7837 165.463C48.7837 163.639 50.373 162.387 52.6289 162.387C54.8628 162.387 56.3936 163.639 56.4448 165.463H54.8481C54.7529 164.408 53.8813 163.771 52.6069 163.771C51.3325 163.771 50.4609 164.416 50.4609 165.353C50.4609 166.1 51.0176 166.54 52.3799 166.876L53.5444 167.162C55.7124 167.675 56.6133 168.546 56.6133 170.092C56.6133 172.069 55.0386 173.307 52.5337 173.307C50.1899 173.307 48.6079 172.099 48.5054 170.187ZM60.1761 162.562V169.279C60.1761 170.788 61.1282 171.85 62.8128 171.85C64.4974 171.85 65.4568 170.788 65.4568 169.279V162.562H67.0901V169.418C67.0901 171.696 65.4642 173.307 62.8128 173.307C60.1614 173.307 58.5354 171.696 58.5354 169.418V162.562H60.1761ZM71.129 173.131H69.4884V162.562H71.129V173.131ZM75.1679 173.131H73.5272V162.562H75.1679V173.131ZM79.2067 173.131H77.5661V162.562H79.2067V173.131ZM83.2456 173.131H81.605V162.562H83.2456V173.131ZM87.2845 173.131H85.6438V162.562H87.2845V173.131ZM91.3233 173.131H89.6827V162.562H91.3233V173.131ZM95.3622 173.131H93.7216V162.562H95.3622V173.131ZM99.4011 173.131H97.7604V162.562H99.4011V173.131ZM103.44 173.131H101.799V162.562H103.44V173.131ZM107.479 173.131H105.838V162.562H107.479V173.131ZM111.518 173.131H109.877V162.562H111.518V173.131ZM115.557 173.131H113.916V162.562H115.557V173.131ZM119.595 173.131H117.955V162.562H119.595V173.131ZM123.634 173.131H121.994V162.562H123.634V173.131ZM127.673 173.131H126.033V162.562H127.673V173.131Z" fill="white"/>
</g>
</g>
</g>
<path d="M55.542 102.277C51.9941 102.277 49.8921 99.3032 49.8921 94.5864C49.8921 89.9004 52.0146 86.9268 55.542 86.9268C59.0796 86.9268 61.1714 89.8901 61.1714 94.5762C61.1714 99.293 59.0898 102.277 55.542 102.277ZM55.542 100.349C57.6543 100.349 58.854 98.165 58.854 94.5864C58.854 91.0591 57.6338 88.8545 55.542 88.8545C53.4502 88.8545 52.2197 91.0693 52.2197 94.5864C52.2197 98.1548 53.4297 100.349 55.542 100.349ZM69.256 102.277C65.7081 102.277 63.6061 99.3032 63.6061 94.5864C63.6061 89.9004 65.7286 86.9268 69.256 86.9268C72.7936 86.9268 74.8854 89.8901 74.8854 94.5762C74.8854 99.293 72.8038 102.277 69.256 102.277ZM69.256 100.349C71.3683 100.349 72.568 98.165 72.568 94.5864C72.568 91.0591 71.3478 88.8545 69.256 88.8545C67.1642 88.8545 65.9337 91.0693 65.9337 94.5864C65.9337 98.1548 67.1437 100.349 69.256 100.349ZM82.97 102.277C79.4221 102.277 77.3201 99.3032 77.3201 94.5864C77.3201 89.9004 79.4426 86.9268 82.97 86.9268C86.5076 86.9268 88.5994 89.8901 88.5994 94.5762C88.5994 99.293 86.5178 102.277 82.97 102.277ZM82.97 100.349C85.0823 100.349 86.282 98.165 86.282 94.5864C86.282 91.0591 85.0618 88.8545 82.97 88.8545C80.8782 88.8545 79.6477 91.0693 79.6477 94.5864C79.6477 98.1548 80.8577 100.349 82.97 100.349ZM96.6839 102.277C93.1361 102.277 91.034 99.3032 91.034 94.5864C91.034 89.9004 93.1566 86.9268 96.6839 86.9268C100.222 86.9268 102.313 89.8901 102.313 94.5762C102.313 99.293 100.232 102.277 96.6839 102.277ZM96.6839 100.349C98.7962 100.349 99.996 98.165 99.996 94.5864C99.996 91.0591 98.7757 88.8545 96.6839 88.8545C94.5921 88.8545 93.3617 91.0693 93.3617 94.5864C93.3617 98.1548 94.5716 100.349 96.6839 100.349ZM120.189 102.277C116.641 102.277 114.539 99.3032 114.539 94.5864C114.539 89.9004 116.662 86.9268 120.189 86.9268C123.727 86.9268 125.819 89.8901 125.819 94.5762C125.819 99.293 123.737 102.277 120.189 102.277ZM120.189 100.349C122.301 100.349 123.501 98.165 123.501 94.5864C123.501 91.0591 122.281 88.8545 120.189 88.8545C118.097 88.8545 116.867 91.0693 116.867 94.5864C116.867 98.1548 118.077 100.349 120.189 100.349ZM133.903 102.277C130.355 102.277 128.253 99.3032 128.253 94.5864C128.253 89.9004 130.376 86.9268 133.903 86.9268C137.441 86.9268 139.533 89.8901 139.533 94.5762C139.533 99.293 137.451 102.277 133.903 102.277ZM133.903 100.349C136.015 100.349 137.215 98.165 137.215 94.5864C137.215 91.0591 135.995 88.8545 133.903 88.8545C131.811 88.8545 130.581 91.0693 130.581 94.5864C130.581 98.1548 131.791 100.349 133.903 100.349ZM147.617 102.277C144.069 102.277 141.967 99.3032 141.967 94.5864C141.967 89.9004 144.09 86.9268 147.617 86.9268C151.155 86.9268 153.247 89.8901 153.247 94.5762C153.247 99.293 151.165 102.277 147.617 102.277ZM147.617 100.349C149.729 100.349 150.929 98.165 150.929 94.5864C150.929 91.0591 149.709 88.8545 147.617 88.8545C145.525 88.8545 144.295 91.0693 144.295 94.5864C144.295 98.1548 145.505 100.349 147.617 100.349ZM161.331 102.277C157.783 102.277 155.681 99.3032 155.681 94.5864C155.681 89.9004 157.804 86.9268 161.331 86.9268C164.869 86.9268 166.961 89.8901 166.961 94.5762C166.961 99.293 164.879 102.277 161.331 102.277ZM161.331 100.349C163.443 100.349 164.643 98.165 164.643 94.5864C164.643 91.0591 163.423 88.8545 161.331 88.8545C159.239 88.8545 158.009 91.0693 158.009 94.5864C158.009 98.1548 159.219 100.349 161.331 100.349ZM184.836 102.277C181.289 102.277 179.186 99.3032 179.186 94.5864C179.186 89.9004 181.309 86.9268 184.836 86.9268C188.374 86.9268 190.466 89.8901 190.466 94.5762C190.466 99.293 188.384 102.277 184.836 102.277ZM184.836 100.349C186.949 100.349 188.148 98.165 188.148 94.5864C188.148 91.0591 186.928 88.8545 184.836 88.8545C182.745 88.8545 181.514 91.0693 181.514 94.5864C181.514 98.1548 182.724 100.349 184.836 100.349ZM198.55 102.277C195.003 102.277 192.9 99.3032 192.9 94.5864C192.9 89.9004 195.023 86.9268 198.55 86.9268C202.088 86.9268 204.18 89.8901 204.18 94.5762C204.18 99.293 202.098 102.277 198.55 102.277ZM198.55 100.349C200.663 100.349 201.862 98.165 201.862 94.5864C201.862 91.0591 200.642 88.8545 198.55 88.8545C196.459 88.8545 195.228 91.0693 195.228 94.5864C195.228 98.1548 196.438 100.349 198.55 100.349ZM212.264 102.277C208.716 102.277 206.614 99.3032 206.614 94.5864C206.614 89.9004 208.737 86.9268 212.264 86.9268C215.802 86.9268 217.894 89.8901 217.894 94.5762C217.894 99.293 215.812 102.277 212.264 102.277ZM212.264 100.349C214.377 100.349 215.576 98.165 215.576 94.5864C215.576 91.0591 214.356 88.8545 212.264 88.8545C210.173 88.8545 208.942 91.0693 208.942 94.5864C208.942 98.1548 210.152 100.349 212.264 100.349ZM225.978 102.277C222.43 102.277 220.328 99.3032 220.328 94.5864C220.328 89.9004 222.451 86.9268 225.978 86.9268C229.516 86.9268 231.608 89.8901 231.608 94.5762C231.608 99.293 229.526 102.277 225.978 102.277ZM225.978 100.349C228.091 100.349 229.29 98.165 229.29 94.5864C229.29 91.0591 228.07 88.8545 225.978 88.8545C223.887 88.8545 222.656 91.0693 222.656 94.5864C222.656 98.1548 223.866 100.349 225.978 100.349ZM249.484 102.277C245.936 102.277 243.834 99.3032 243.834 94.5864C243.834 89.9004 245.956 86.9268 249.484 86.9268C253.021 86.9268 255.113 89.8901 255.113 94.5762C255.113 99.293 253.031 102.277 249.484 102.277ZM249.484 100.349C251.596 100.349 252.796 98.165 252.796 94.5864C252.796 91.0591 251.575 88.8545 249.484 88.8545C247.392 88.8545 246.161 91.0693 246.161 94.5864C246.161 98.1548 247.371 100.349 249.484 100.349ZM263.198 102.277C259.65 102.277 257.548 99.3032 257.548 94.5864C257.548 89.9004 259.67 86.9268 263.198 86.9268C266.735 86.9268 268.827 89.8901 268.827 94.5762C268.827 99.293 266.745 102.277 263.198 102.277ZM263.198 100.349C265.31 100.349 266.51 98.165 266.51 94.5864C266.51 91.0591 265.289 88.8545 263.198 88.8545C261.106 88.8545 259.875 91.0693 259.875 94.5864C259.875 98.1548 261.085 100.349 263.198 100.349ZM276.912 102.277C273.364 102.277 271.262 99.3032 271.262 94.5864C271.262 89.9004 273.384 86.9268 276.912 86.9268C280.449 86.9268 282.541 89.8901 282.541 94.5762C282.541 99.293 280.459 102.277 276.912 102.277ZM276.912 100.349C279.024 100.349 280.224 98.165 280.224 94.5864C280.224 91.0591 279.003 88.8545 276.912 88.8545C274.82 88.8545 273.589 91.0693 273.589 94.5864C273.589 98.1548 274.799 100.349 276.912 100.349ZM290.626 102.277C287.078 102.277 284.976 99.3032 284.976 94.5864C284.976 89.9004 287.098 86.9268 290.626 86.9268C294.163 86.9268 296.255 89.8901 296.255 94.5762C296.255 99.293 294.173 102.277 290.626 102.277ZM290.626 100.349C292.738 100.349 293.938 98.165 293.938 94.5864C293.938 91.0591 292.717 88.8545 290.626 88.8545C288.534 88.8545 287.303 91.0693 287.303 94.5864C287.303 98.1548 288.513 100.349 290.626 100.349Z" fill="white"/>
<path d="M327.27 69.6498V69.4181H327.399V69.3701H327.091V69.4181H327.213V69.6498H327.27ZM327.868 69.6498V69.3701H327.775L327.666 69.5699L327.557 69.3701H327.464V69.6498H327.531V69.438L327.632 69.6198H327.702L327.803 69.438V69.6498H327.868Z" fill="#F79E1B"/>
<path d="M299.816 46.9165H291.188V61.0089H299.816V46.9165Z" fill="#FF5F00"/>
<path d="M292.076 53.9644C292.075 52.6075 292.383 51.268 292.976 50.0475C293.569 48.827 294.432 47.7573 295.499 46.9195C294.177 45.8805 292.59 45.2344 290.918 45.055C289.246 44.8757 287.557 45.1703 286.045 45.9053C284.532 46.6403 283.257 47.7859 282.365 49.2112C281.473 50.6366 281 52.2842 281 53.9657C281 55.6472 281.473 57.2948 282.365 58.7201C283.257 60.1455 284.532 61.2911 286.045 62.0261C287.557 62.761 289.246 63.0557 290.918 62.8763C292.59 62.697 294.177 62.0509 295.499 61.0119C294.432 60.1738 293.568 59.1038 292.975 57.8828C292.382 56.6618 292.075 55.3218 292.076 53.9644Z" fill="#F24E1E"/>
<path d="M309.144 59.5179V59.2292H309.268V59.1694H308.972V59.2292H309.089V59.5179H309.144ZM309.719 59.5179V59.1694H309.629L309.525 59.4184L309.42 59.1694H309.33V59.5179H309.395V59.2541L309.492 59.4806H309.559L309.657 59.2541V59.5179H309.719Z" fill="#F79E1B"/>
<path d="M310 53.9641C310 55.6457 309.527 57.2934 308.634 58.7188C307.742 60.1442 306.467 61.2898 304.954 62.0247C303.442 62.7595 301.753 63.054 300.081 62.8744C298.409 62.6948 296.821 62.0484 295.499 61.009C296.566 60.1705 297.429 59.1005 298.022 57.8799C298.615 56.6593 298.923 55.3199 298.923 53.9628C298.923 52.6057 298.615 51.2663 298.022 50.0457C297.429 48.8251 296.566 47.7552 295.499 46.9166C296.821 45.8773 298.409 45.2309 300.081 45.0513C301.753 44.8717 303.442 45.1661 304.954 45.901C306.467 46.6358 307.742 47.7814 308.634 49.2069C309.527 50.6323 310 52.2799 310 53.9616V53.9641Z" fill="#FFD25F"/>
<defs>
<filter id="filter0_d_78_487" x="-14" y="0" width="387" height="252" filterUnits="userSpaceOnUse" color-interpolation-filters="sRGB">
<feFlood flood-opacity="0" result="BackgroundImageFix"/>
<feColorMatrix in="SourceAlpha" type="matrix" values="0 0 0 0 0 0 0 0 0 0 0 0 0 0 0 0 0 0 127 0" result="hardAlpha"/>
<feOffset dy="12"/>
<feGaussianBlur stdDeviation="20"/>
<feColorMatrix type="matrix" values="0 0 0 0 0.721569 0 0 0 0 0.580392 0 0 0 0 0.843137 0 0 0 0.35 0"/>
<feBlend mode="normal" in2="BackgroundImageFix" result="effect1_dropShadow_78_487"/>
<feBlend mode="normal" in="SourceGraphic" in2="effect1_dropShadow_78_487" result="shape"/>
</filter>
<filter id="filter1_d_78_487" x="265.527" y="160.066" width="37.4966" height="19.0225" filterUnits="userSpaceOnUse" color-interpolation-filters="sRGB">
<feFlood flood-opacity="0" result="BackgroundImageFix"/>
<feColorMatrix in="SourceAlpha" type="matrix" values="0 0 0 0 0 0 0 0 0 0 0 0 0 0 0 0 0 0 127 0" result="hardAlpha"/>
<feOffset dy="0.701049"/>
<feGaussianBlur stdDeviation="1.5"/>
<feColorMatrix type="matrix" values="0 0 0 0 0.302166 0 0 0 0 0.0193229 0 0 0 0 0.6625 0 0 0 0.3 0"/>
<feBlend mode="normal" in2="BackgroundImageFix" result="effect1_dropShadow_78_487"/>
<feBlend mode="normal" in="SourceGraphic" in2="effect1_dropShadow_78_487" result="shape"/>
</filter>
<filter id="filter2_d_78_487" x="45.5054" y="160.088" width="85.1677" height="16.9204" filterUnits="userSpaceOnUse" color-interpolation-filters="sRGB">
<feFlood flood-opacity="0" result="BackgroundImageFix"/>
<feColorMatrix in="SourceAlpha" type="matrix" values="0 0 0 0 0 0 0 0 0 0 0 0 0 0 0 0 0 0 127 0" result="hardAlpha"/>
<feOffset dy="0.701049"/>
<feGaussianBlur stdDeviation="1.5"/>
<feColorMatrix type="matrix" values="0 0 0 0 0.302166 0 0 0 0 0.0193229 0 0 0 0 0.6625 0 0 0 0.3 0"/>
<feBlend mode="normal" in2="BackgroundImageFix" result="effect1_dropShadow_78_487"/>
<feBlend mode="normal" in="SourceGraphic" in2="effect1_dropShadow_78_487" result="shape"/>
</filter>
<linearGradient id="paint0_linear_78_487" x1="26" y1="114" x2="333" y2="114" gradientUnits="userSpaceOnUse">
<stop stop-color="#4CAF50"/>
<stop offset="1" stop-color="#2A9235"/>
</linearGradient>
</defs>
</svg>
