<svg width="49" height="35" viewBox="0 0 49 35" fill="none" xmlns="http://www.w3.org/2000/svg">
<rect width="48.1958" height="34.1469" rx="3" fill="#DA9500"/>
<path fill-rule="evenodd" clip-rule="evenodd" d="M12 11.0245C12 10.2223 12.3186 9.45305 12.8858 8.88585C13.453 8.31865 14.2223 8 15.0245 8H33.1713C33.9735 8 34.7428 8.31865 35.31 8.88585C35.8772 9.45305 36.1958 10.2223 36.1958 11.0245V23.1224C36.1958 23.9245 35.8772 24.6938 35.31 25.261C34.7428 25.8282 33.9735 26.1469 33.1713 26.1469H15.0245C14.2223 26.1469 13.453 25.8282 12.8858 25.261C12.3186 24.6938 12 23.9245 12 23.1224V11.0245ZM15.0245 9.51224C14.6234 9.51224 14.2388 9.67156 13.9552 9.95516C13.6716 10.2388 13.5122 10.6234 13.5122 11.0245V12.5367H34.6836V11.0245C34.6836 10.6234 34.5242 10.2388 34.2406 9.95516C33.957 9.67156 33.5724 9.51224 33.1713 9.51224H15.0245ZM34.6836 15.5612H13.5122V23.1224C13.5122 23.5234 13.6716 23.9081 13.9552 24.1917C14.2388 24.4753 14.6234 24.6346 15.0245 24.6346H33.1713C33.5724 24.6346 33.957 24.4753 34.2406 24.1917C34.5242 23.9081 34.6836 23.5234 34.6836 23.1224V15.5612Z" fill="white"/>
</svg>
