<svg width="50" height="34" viewBox="0 0 50 34" fill="none" xmlns="http://www.w3.org/2000/svg">
<rect width="49.1761" height="33.1925" rx="3" fill="#2DDC5D"/>
<path d="M30.4126 18.7136C30.1027 19.7917 29.4885 20.7575 28.6436 21.4954C27.7987 22.2332 26.759 22.7118 25.649 22.8738C24.781 22.9997 23.8965 22.9489 23.0486 22.7245C22.2007 22.5001 21.4069 22.1067 20.7149 21.5679C20.0228 21.0291 19.4468 20.356 19.0213 19.589C18.5959 18.822 18.3298 17.977 18.239 17.1046C18.1687 16.2288 18.2809 15.3479 18.5685 14.5177C18.856 13.6875 19.3127 12.9259 19.9097 12.2812C20.5066 11.6365 21.2308 11.1227 22.0365 10.7722C22.8422 10.4218 23.7118 10.2423 24.5904 10.2451C25.4137 10.2462 26.2293 10.4043 26.9934 10.7108C27.1137 10.7649 27.2499 10.772 27.3752 10.7309C27.5005 10.6898 27.6059 10.6033 27.6709 10.4885L29.1952 7.68334C29.228 7.61872 29.2477 7.54827 29.2533 7.47601C29.2588 7.40376 29.25 7.33112 29.2274 7.26228C29.2047 7.19343 29.1687 7.12973 29.1214 7.07483C29.0741 7.01992 29.0165 6.9749 28.9517 6.94234C27.3149 6.20125 25.5163 5.889 23.7255 6.03501C21.9346 6.18101 20.2104 6.78047 18.7152 7.7769C17.22 8.77334 16.0031 10.134 15.179 11.7306C14.3549 13.3273 13.9508 15.1075 14.0048 16.9035C14.1091 19.5709 15.2056 22.1034 17.0795 24.0046C18.9533 25.9059 21.4696 27.0391 24.1353 27.1821C26.9277 27.306 29.6557 26.3203 31.7242 24.4403C33.7926 22.5603 35.0335 19.9384 35.1761 17.1469C35.1761 16.9352 35.1761 15.7179 35.1761 15.0298C35.1734 14.8903 35.1168 14.7572 35.0181 14.6585C34.9194 14.5598 34.7863 14.5032 34.6468 14.5005H25.1197C24.9793 14.5005 24.8447 14.5563 24.7455 14.6555C24.6462 14.7548 24.5904 14.8894 24.5904 15.0298V18.2055C24.5904 18.3459 24.6462 18.4805 24.7455 18.5797C24.8447 18.679 24.9793 18.7348 25.1197 18.7348H30.4126" fill="white"/>
</svg>
