<svg width="48" height="33" viewBox="0 0 48 33" fill="none" xmlns="http://www.w3.org/2000/svg">
<rect width="47.4114" height="32.5664" rx="3" fill="#4269FF"/>
<path d="M20.0485 18.0911C19.8896 18.9619 19.2598 23.021 19.0733 24.1682C19.0595 24.2502 19.0276 24.2814 18.9369 24.2814H15.554C15.2093 24.2814 14.9597 23.9825 15.0054 23.6509L17.6634 6.78436C17.7316 6.34898 18.1213 6.0181 18.5704 6.0181C25.4777 6.0181 26.0582 5.85048 27.8222 6.53547C30.5476 7.59199 30.7972 10.1411 29.8176 12.8985C28.8424 15.7379 26.5298 16.9577 23.4641 16.9939C21.4961 17.0259 20.3119 16.6761 20.0492 18.0911H20.0485ZM31.192 11.5648C31.11 11.506 31.0788 11.4828 31.0556 11.6236C30.9649 12.1402 30.8241 12.6438 30.6565 13.1474C28.8468 18.3088 23.8312 17.8596 21.3822 17.8596C21.1058 17.8596 20.9244 18.0091 20.8881 18.2856C19.8635 24.653 19.6589 25.9816 19.6589 25.9816C19.6131 26.3038 19.8178 26.5664 20.1392 26.5664H23.0192C23.4096 26.5664 23.7311 26.2805 23.8087 25.8909C23.8407 25.6463 23.7587 26.1673 24.4618 21.7504C24.6708 20.7527 25.1105 20.8572 25.7904 20.8572C29.0108 20.8572 31.5229 19.5511 32.271 15.764C32.5656 14.1858 32.48 12.5255 31.192 11.5641V11.5648Z" fill="white"/>
</svg>
