<svg width="49" height="33" viewBox="0 0 49 33" fill="none" xmlns="http://www.w3.org/2000/svg">
<rect width="48.5759" height="32.5664" rx="3" fill="#DC422D"/>
<path d="M33.0675 26.5666H15.5084C14.1231 26.5666 13 25.4435 13 24.0581V12.7702C13 11.3848 14.1231 10.2617 15.5084 10.2617H33.0675C34.4529 10.2617 35.5759 11.3848 35.5759 12.7702V24.0581C35.5759 25.4435 34.4529 26.5666 33.0675 26.5666Z" stroke="white" stroke-width="1.94395"/>
<path d="M29.9318 19.0413C29.5855 19.0413 29.3047 18.7605 29.3047 18.4142C29.3047 18.0679 29.5855 17.7871 29.9318 17.7871C30.2781 17.7871 30.5589 18.0679 30.5589 18.4142C30.5589 18.7605 30.2781 19.0413 29.9318 19.0413Z" fill="white" stroke="white" stroke-width="1.94395" stroke-linecap="round" stroke-linejoin="round"/>
<path d="M31.8133 10.2617V8.50981C31.8133 6.86169 30.251 5.66141 28.6586 6.08607L14.8621 9.76512C13.764 10.0579 13 11.0524 13 12.1889V12.7701" stroke="white" stroke-width="1.94395"/>
</svg>
