<svg width="20" height="20" viewBox="0 0 20 20" fill="none" xmlns="http://www.w3.org/2000/svg">
<g id="&#240;&#159;&#166;&#134; emoji &#34;white medium star&#34;">
<path id="Vector" d="M15.3656 19.0141C15.1294 19.0141 14.8945 18.9416 14.6922 18.7972L9.93709 15.3871L5.18197 18.7972C4.77689 19.0871 4.23328 19.0871 3.83054 18.7925C3.4278 18.5008 3.25829 17.983 3.4091 17.5101L5.18255 11.7864L0.470101 8.46569C0.0697003 8.17051 -0.0968898 7.65145 0.0562561 7.17798C0.210571 6.70569 0.650135 6.38478 1.14698 6.38127L6.98348 6.37251L8.84169 0.790864C8.99834 0.317982 9.43966 0 9.93709 0C10.4345 0 10.8758 0.318567 11.0331 0.790864L12.8597 6.37251L18.726 6.38127C19.2246 6.38478 19.6648 6.70627 19.8173 7.17798C19.9711 7.65145 19.8045 8.17051 19.4035 8.46569L14.691 11.7864L16.4645 17.5101C16.6165 17.983 16.4452 18.5008 16.0436 18.7925C15.8408 18.941 15.6035 19.0141 15.3656 19.0141Z" fill="#FFAC33"/>
</g>
</svg>
